<svg xmlns="http://www.w3.org/2000/svg" viewBox="0 0 400 480" fill="none">
  <!-- Hoodie Front -->
  <path d="M130 40 L80 90 L40 130 L80 150 L80 420 L320 420 L320 150 L360 130 L320 90 L270 40 Q250 50 230 52 L220 80 L200 90 L180 80 L170 52 Q150 50 130 40Z" fill="black" fill-opacity="0.12" stroke="black" stroke-opacity="0.25" stroke-width="1.5"/>
  <!-- Hood -->
  <path d="M155 42 Q200 30 245 42 Q240 20 200 18 Q160 20 155 42Z" fill="black" fill-opacity="0.08" stroke="black" stroke-opacity="0.2" stroke-width="1"/>
  <!-- Front zipper line -->
  <line x1="200" y1="90" x2="200" y2="420" stroke="black" stroke-opacity="0.15" stroke-width="1" stroke-dasharray="4 3"/>
  <!-- Pocket -->
  <path d="M150 300 Q200 295 250 300 L255 360 Q200 365 145 360 Z" fill="none" stroke="black" stroke-opacity="0.2" stroke-width="1"/>
</svg>
