<svg xmlns="http://www.w3.org/2000/svg" viewBox="0 0 400 480" fill="none">
  <ellipse cx="200" cy="452" rx="118" ry="14" fill="#000" opacity="0.14"/>
  <path d="M88 98 L48 132 L28 168 L62 188 L62 432 L338 432 L338 188 L372 168 L352 132 L312 98 Q285 122 200 126 Q115 122 88 98 Z" fill="#e4e4e7"/>
  <path d="M130 95 Q200 55 270 95 L255 125 Q200 105 145 125 Z" fill="rgba(0,0,0,0.1)"/>
  <path d="M198 155 L198 432" stroke="rgba(0,0,0,0.12)" stroke-width="1.2" stroke-dasharray="5 4"/>
  <path d="M145 300 Q200 292 255 300 L258 365 Q200 372 142 365 Z" fill="none" stroke="rgba(0,0,0,0.18)" stroke-width="1.2"/>
  <path d="M88 98 L48 132 L28 168 L62 188 L62 432 L338 432 L338 188 L372 168 L352 132 L312 98 Q285 122 200 126 Q115 122 88 98 Z" fill="none" stroke="rgba(0,0,0,0.3)" stroke-width="1.8" stroke-linejoin="round"/>
</svg>
